<mxfile host="app.diagrams.net" modified="2024-03-28T11:12:57.782Z" agent="Mozilla/5.0 (Macintosh; Intel Mac OS X 10_15_7) AppleWebKit/605.1.15 (KHTML, like Gecko) Version/17.3 Safari/605.1.15" etag="SSktvkLZbK9CA4Sqxsjt" version="24.1.0" type="device">
  <diagram id="UNEcj8PjCtWKj6dkkVWt" name="Sequence diagram">
    <mxGraphModel dx="1060" dy="569" grid="0" gridSize="10" guides="1" tooltips="1" connect="1" arrows="1" fold="1" page="0" pageScale="1" pageWidth="827" pageHeight="1169" math="0" shadow="0">
      <root>
        <mxCell id="0" />
        <mxCell id="1" parent="0" />
        <mxCell id="iUJNnhAUQARR3c_dlysx-1" value="" style="endArrow=none;dashed=1;html=1;rounded=0;entryX=0.5;entryY=0.5;entryDx=0;entryDy=0;entryPerimeter=0;" parent="1" source="iUJNnhAUQARR3c_dlysx-75" edge="1">
          <mxGeometry width="50" height="50" relative="1" as="geometry">
            <mxPoint x="1440" y="1908.75" as="sourcePoint" />
            <mxPoint x="1446.25" y="148.75" as="targetPoint" />
          </mxGeometry>
        </mxCell>
        <mxCell id="iUJNnhAUQARR3c_dlysx-2" value="" style="endArrow=none;dashed=1;html=1;rounded=0;entryX=0.5;entryY=0.5;entryDx=0;entryDy=0;entryPerimeter=0;" parent="1" edge="1">
          <mxGeometry width="50" height="50" relative="1" as="geometry">
            <mxPoint x="1226.87" y="1895" as="sourcePoint" />
            <mxPoint x="1233.12" y="135" as="targetPoint" />
          </mxGeometry>
        </mxCell>
        <mxCell id="iUJNnhAUQARR3c_dlysx-3" value="" style="endArrow=none;dashed=1;html=1;rounded=0;entryX=0.5;entryY=0.5;entryDx=0;entryDy=0;entryPerimeter=0;" parent="1" edge="1">
          <mxGeometry width="50" height="50" relative="1" as="geometry">
            <mxPoint x="1071.8700000000001" y="1895" as="sourcePoint" />
            <mxPoint x="1078.1200000000001" y="135" as="targetPoint" />
          </mxGeometry>
        </mxCell>
        <mxCell id="iUJNnhAUQARR3c_dlysx-4" value="" style="endArrow=none;dashed=1;html=1;rounded=0;entryX=0.5;entryY=0.5;entryDx=0;entryDy=0;entryPerimeter=0;" parent="1" edge="1">
          <mxGeometry width="50" height="50" relative="1" as="geometry">
            <mxPoint x="861.8799999999999" y="1895" as="sourcePoint" />
            <mxPoint x="868.1299999999999" y="135" as="targetPoint" />
          </mxGeometry>
        </mxCell>
        <mxCell id="iUJNnhAUQARR3c_dlysx-5" value="" style="endArrow=none;dashed=1;html=1;rounded=0;entryX=0.5;entryY=0.5;entryDx=0;entryDy=0;entryPerimeter=0;" parent="1" edge="1">
          <mxGeometry width="50" height="50" relative="1" as="geometry">
            <mxPoint x="636.8700000000001" y="1880" as="sourcePoint" />
            <mxPoint x="643.1200000000001" y="120" as="targetPoint" />
          </mxGeometry>
        </mxCell>
        <mxCell id="iUJNnhAUQARR3c_dlysx-6" value="" style="endArrow=none;dashed=1;html=1;rounded=0;entryX=0.5;entryY=0.5;entryDx=0;entryDy=0;entryPerimeter=0;" parent="1" edge="1">
          <mxGeometry width="50" height="50" relative="1" as="geometry">
            <mxPoint x="456.8799999999999" y="1890" as="sourcePoint" />
            <mxPoint x="463.1299999999999" y="130" as="targetPoint" />
          </mxGeometry>
        </mxCell>
        <mxCell id="iUJNnhAUQARR3c_dlysx-7" value="" style="endArrow=none;dashed=1;html=1;rounded=0;entryX=0.5;entryY=0.5;entryDx=0;entryDy=0;entryPerimeter=0;" parent="1" edge="1">
          <mxGeometry width="50" height="50" relative="1" as="geometry">
            <mxPoint x="276.87" y="1890" as="sourcePoint" />
            <mxPoint x="283.12" y="130" as="targetPoint" />
          </mxGeometry>
        </mxCell>
        <mxCell id="iUJNnhAUQARR3c_dlysx-8" value="" style="endArrow=none;dashed=1;html=1;rounded=0;entryX=0.5;entryY=0.5;entryDx=0;entryDy=0;entryPerimeter=0;" parent="1" edge="1">
          <mxGeometry width="50" height="50" relative="1" as="geometry">
            <mxPoint x="96" y="1870" as="sourcePoint" />
            <mxPoint x="102.25" y="110" as="targetPoint" />
          </mxGeometry>
        </mxCell>
        <mxCell id="iUJNnhAUQARR3c_dlysx-9" value="Пользователь" style="shape=umlActor;verticalLabelPosition=bottom;verticalAlign=top;html=1;outlineConnect=0;" parent="1" vertex="1">
          <mxGeometry x="85" y="50" width="30" height="60" as="geometry" />
        </mxCell>
        <mxCell id="iUJNnhAUQARR3c_dlysx-10" value="Менеджер" style="ellipse;shape=umlControl;whiteSpace=wrap;html=1;" parent="1" vertex="1">
          <mxGeometry x="1390" y="37.5" width="110" height="110" as="geometry" />
        </mxCell>
        <mxCell id="iUJNnhAUQARR3c_dlysx-11" value="Кредитование" style="ellipse;shape=umlEntity;whiteSpace=wrap;html=1;" parent="1" vertex="1">
          <mxGeometry x="1022.5" y="46.25" width="105" height="102.5" as="geometry" />
        </mxCell>
        <mxCell id="iUJNnhAUQARR3c_dlysx-12" value="Форма регистрации&lt;br&gt;нового пользователя" style="shape=umlBoundary;whiteSpace=wrap;html=1;" parent="1" vertex="1">
          <mxGeometry x="395" y="50" width="117.5" height="90" as="geometry" />
        </mxCell>
        <mxCell id="iUJNnhAUQARR3c_dlysx-13" value="&lt;span style=&quot;text-align: center&quot;&gt;Ввести логин&lt;/span&gt;" style="text;whiteSpace=wrap;html=1;" parent="1" vertex="1">
          <mxGeometry x="115" y="490" width="110" height="20" as="geometry" />
        </mxCell>
        <mxCell id="iUJNnhAUQARR3c_dlysx-15" value="Переход на сайт" style="text;html=1;align=center;verticalAlign=middle;resizable=0;points=[];autosize=1;strokeColor=none;fillColor=none;" parent="1" vertex="1">
          <mxGeometry x="130" y="200" width="110" height="20" as="geometry" />
        </mxCell>
        <mxCell id="iUJNnhAUQARR3c_dlysx-16" style="edgeStyle=orthogonalEdgeStyle;rounded=0;orthogonalLoop=1;jettySize=auto;html=1;exitX=1;exitY=0.5;exitDx=0;exitDy=0;entryX=-0.041;entryY=0.335;entryDx=0;entryDy=0;entryPerimeter=0;" parent="1" source="iUJNnhAUQARR3c_dlysx-17" target="iUJNnhAUQARR3c_dlysx-21" edge="1">
          <mxGeometry relative="1" as="geometry">
            <mxPoint x="260" y="220" as="targetPoint" />
          </mxGeometry>
        </mxCell>
        <mxCell id="iUJNnhAUQARR3c_dlysx-17" value="" style="rounded=0;whiteSpace=wrap;html=1;" parent="1" vertex="1">
          <mxGeometry x="90" y="190" width="20" height="60" as="geometry" />
        </mxCell>
        <mxCell id="iUJNnhAUQARR3c_dlysx-18" style="edgeStyle=orthogonalEdgeStyle;rounded=0;orthogonalLoop=1;jettySize=auto;html=1;exitX=1;exitY=0.25;exitDx=0;exitDy=0;entryX=-0.207;entryY=0.062;entryDx=0;entryDy=0;entryPerimeter=0;" parent="1" edge="1">
          <mxGeometry relative="1" as="geometry">
            <Array as="points">
              <mxPoint x="110" y="402" />
            </Array>
            <mxPoint x="110" y="410" as="sourcePoint" />
            <mxPoint x="445.8600000000001" y="401.81999999999994" as="targetPoint" />
          </mxGeometry>
        </mxCell>
        <mxCell id="iUJNnhAUQARR3c_dlysx-19" style="edgeStyle=orthogonalEdgeStyle;rounded=0;orthogonalLoop=1;jettySize=auto;html=1;exitX=1;exitY=0.75;exitDx=0;exitDy=0;" parent="1" edge="1">
          <mxGeometry relative="1" as="geometry">
            <Array as="points">
              <mxPoint x="370" y="519.71" />
              <mxPoint x="370" y="519.71" />
            </Array>
            <mxPoint x="110" y="519.7099999999998" as="sourcePoint" />
            <mxPoint x="620" y="519.9999999999998" as="targetPoint" />
          </mxGeometry>
        </mxCell>
        <mxCell id="iUJNnhAUQARR3c_dlysx-20" value="" style="rounded=0;whiteSpace=wrap;html=1;" parent="1" vertex="1">
          <mxGeometry x="90" y="190" width="20" height="1619" as="geometry" />
        </mxCell>
        <mxCell id="iUJNnhAUQARR3c_dlysx-21" value="" style="rounded=0;whiteSpace=wrap;html=1;" parent="1" vertex="1">
          <mxGeometry x="270" y="190" width="20" height="90" as="geometry" />
        </mxCell>
        <mxCell id="iUJNnhAUQARR3c_dlysx-23" value="Проверка &lt;br&gt;пользователя" style="text;html=1;align=center;verticalAlign=middle;resizable=0;points=[];autosize=1;strokeColor=none;fillColor=none;" parent="1" vertex="1">
          <mxGeometry x="315" y="406" width="90" height="30" as="geometry" />
        </mxCell>
        <mxCell id="iUJNnhAUQARR3c_dlysx-25" value="Проверка&lt;br&gt;логина и пароля" style="text;html=1;align=center;verticalAlign=middle;resizable=0;points=[];autosize=1;strokeColor=none;fillColor=none;" parent="1" vertex="1">
          <mxGeometry x="325" y="578" width="110" height="30" as="geometry" />
        </mxCell>
        <mxCell id="iUJNnhAUQARR3c_dlysx-26" value="" style="rounded=0;whiteSpace=wrap;html=1;" parent="1" vertex="1">
          <mxGeometry x="450" y="300" width="20" height="150" as="geometry" />
        </mxCell>
        <mxCell id="iUJNnhAUQARR3c_dlysx-27" style="edgeStyle=orthogonalEdgeStyle;rounded=0;orthogonalLoop=1;jettySize=auto;html=1;exitX=1;exitY=0.25;exitDx=0;exitDy=0;entryX=-0.207;entryY=0.062;entryDx=0;entryDy=0;entryPerimeter=0;" parent="1" edge="1">
          <mxGeometry relative="1" as="geometry">
            <Array as="points">
              <mxPoint x="110" y="317" />
            </Array>
            <mxPoint x="110" y="315" as="sourcePoint" />
            <mxPoint x="445.8600000000001" y="316.81999999999994" as="targetPoint" />
          </mxGeometry>
        </mxCell>
        <mxCell id="iUJNnhAUQARR3c_dlysx-28" value="&lt;span style=&quot;text-align: center;&quot;&gt;Добавить документы идентификации личности&lt;/span&gt;" style="text;whiteSpace=wrap;html=1;" parent="1" vertex="1">
          <mxGeometry x="115" y="290" width="315" height="30" as="geometry" />
        </mxCell>
        <mxCell id="iUJNnhAUQARR3c_dlysx-29" style="edgeStyle=orthogonalEdgeStyle;rounded=0;orthogonalLoop=1;jettySize=auto;html=1;exitX=1;exitY=0.25;exitDx=0;exitDy=0;entryX=-0.207;entryY=0.062;entryDx=0;entryDy=0;entryPerimeter=0;" parent="1" edge="1">
          <mxGeometry relative="1" as="geometry">
            <Array as="points">
              <mxPoint x="110" y="357" />
            </Array>
            <mxPoint x="110" y="355" as="sourcePoint" />
            <mxPoint x="445.8600000000001" y="356.81999999999994" as="targetPoint" />
          </mxGeometry>
        </mxCell>
        <mxCell id="iUJNnhAUQARR3c_dlysx-30" value="&lt;span style=&quot;text-align: center;&quot;&gt;Ввести личную информацию&lt;/span&gt;" style="text;whiteSpace=wrap;html=1;" parent="1" vertex="1">
          <mxGeometry x="115" y="335" width="200" height="30" as="geometry" />
        </mxCell>
        <mxCell id="iUJNnhAUQARR3c_dlysx-32" style="edgeStyle=orthogonalEdgeStyle;rounded=0;orthogonalLoop=1;jettySize=auto;html=1;exitX=1;exitY=0.75;exitDx=0;exitDy=0;" parent="1" edge="1">
          <mxGeometry relative="1" as="geometry">
            <Array as="points">
              <mxPoint x="371.02" y="570" />
              <mxPoint x="371.02" y="570" />
            </Array>
            <mxPoint x="111.0200000000001" y="569.9999999999998" as="sourcePoint" />
            <mxPoint x="620" y="569.9999999999998" as="targetPoint" />
          </mxGeometry>
        </mxCell>
        <mxCell id="iUJNnhAUQARR3c_dlysx-33" value="&lt;span style=&quot;color: rgb(0, 0, 0); font-family: helvetica; font-size: 12px; font-style: normal; font-weight: 400; letter-spacing: normal; text-align: center; text-indent: 0px; text-transform: none; word-spacing: 0px; background-color: rgb(248, 249, 250); display: inline; float: none;&quot;&gt;Ввести пароль&lt;/span&gt;" style="text;whiteSpace=wrap;html=1;" parent="1" vertex="1">
          <mxGeometry x="115" y="545" width="110" height="30" as="geometry" />
        </mxCell>
        <mxCell id="iUJNnhAUQARR3c_dlysx-34" style="edgeStyle=orthogonalEdgeStyle;rounded=0;orthogonalLoop=1;jettySize=auto;html=1;exitX=1;exitY=0.75;exitDx=0;exitDy=0;" parent="1" edge="1">
          <mxGeometry relative="1" as="geometry">
            <Array as="points">
              <mxPoint x="370" y="645" />
              <mxPoint x="370" y="645" />
            </Array>
            <mxPoint x="109.99999999999989" y="644.9999999999998" as="sourcePoint" />
            <mxPoint x="620" y="644.9999999999998" as="targetPoint" />
          </mxGeometry>
        </mxCell>
        <mxCell id="iUJNnhAUQARR3c_dlysx-35" value="&lt;span style=&quot;color: rgb(0, 0, 0); font-family: helvetica; font-size: 12px; font-style: normal; font-weight: 400; letter-spacing: normal; text-align: center; text-indent: 0px; text-transform: none; word-spacing: 0px; background-color: rgb(248, 249, 250); display: inline; float: none;&quot;&gt;Востановить аккаунт&lt;/span&gt;" style="text;whiteSpace=wrap;html=1;" parent="1" vertex="1">
          <mxGeometry x="115" y="611" width="140" height="30" as="geometry" />
        </mxCell>
        <mxCell id="iUJNnhAUQARR3c_dlysx-36" value="" style="rounded=0;whiteSpace=wrap;html=1;" parent="1" vertex="1">
          <mxGeometry x="630" y="500" width="20" height="190" as="geometry" />
        </mxCell>
        <mxCell id="iUJNnhAUQARR3c_dlysx-39" value="Сайт" style="rounded=0;whiteSpace=wrap;html=1;" parent="1" vertex="1">
          <mxGeometry x="220" y="65" width="120" height="60" as="geometry" />
        </mxCell>
        <mxCell id="iUJNnhAUQARR3c_dlysx-40" value="Форма входа в аккаунт пользователя" style="shape=umlBoundary;whiteSpace=wrap;html=1;" parent="1" vertex="1">
          <mxGeometry x="565" y="45" width="127.5" height="100" as="geometry" />
        </mxCell>
        <mxCell id="iUJNnhAUQARR3c_dlysx-41" value="Карты" style="ellipse;shape=umlEntity;whiteSpace=wrap;html=1;" parent="1" vertex="1">
          <mxGeometry x="1182.5" y="45" width="107.5" height="102.5" as="geometry" />
        </mxCell>
        <mxCell id="iUJNnhAUQARR3c_dlysx-42" value="Счет" style="ellipse;shape=umlEntity;whiteSpace=wrap;html=1;" parent="1" vertex="1">
          <mxGeometry x="818.75" y="41.25" width="107.5" height="107.5" as="geometry" />
        </mxCell>
        <mxCell id="iUJNnhAUQARR3c_dlysx-43" value="&lt;span style=&quot;text-align: center;&quot;&gt;Узнать информацию счета&lt;/span&gt;" style="text;whiteSpace=wrap;html=1;" parent="1" vertex="1">
          <mxGeometry x="125" y="760" width="210" height="30" as="geometry" />
        </mxCell>
        <mxCell id="iUJNnhAUQARR3c_dlysx-44" value="&lt;span style=&quot;text-align: center;&quot;&gt;Узнать историю операций&lt;/span&gt;" style="text;whiteSpace=wrap;html=1;" parent="1" vertex="1">
          <mxGeometry x="125" y="800" width="200" height="30" as="geometry" />
        </mxCell>
        <mxCell id="iUJNnhAUQARR3c_dlysx-45" value="&lt;span style=&quot;text-align: center;&quot;&gt;Узнать баланс карт&lt;/span&gt;" style="text;whiteSpace=wrap;html=1;" parent="1" vertex="1">
          <mxGeometry x="120" y="850" width="190" height="30" as="geometry" />
        </mxCell>
        <mxCell id="iUJNnhAUQARR3c_dlysx-46" value="&lt;span style=&quot;text-align: center;&quot;&gt;Узнать реквизиты&lt;/span&gt;" style="text;whiteSpace=wrap;html=1;" parent="1" vertex="1">
          <mxGeometry x="120" y="890" width="220" height="30" as="geometry" />
        </mxCell>
        <mxCell id="iUJNnhAUQARR3c_dlysx-47" value="&lt;span style=&quot;text-align: center;&quot;&gt;Отправить запрос на подтверждение&amp;nbsp;&lt;/span&gt;" style="text;whiteSpace=wrap;html=1;" parent="1" vertex="1">
          <mxGeometry x="120" y="1090" width="280" height="30" as="geometry" />
        </mxCell>
        <mxCell id="iUJNnhAUQARR3c_dlysx-48" value="&lt;span style=&quot;text-align: center;&quot;&gt;Выбрать тип лица, которому будут оказана услуга&lt;/span&gt;" style="text;whiteSpace=wrap;html=1;" parent="1" vertex="1">
          <mxGeometry x="120" y="1150" width="390" height="30" as="geometry" />
        </mxCell>
        <mxCell id="iUJNnhAUQARR3c_dlysx-49" value="&lt;span style=&quot;text-align: center;&quot;&gt;Выбрать вид займа&lt;/span&gt;" style="text;whiteSpace=wrap;html=1;" parent="1" vertex="1">
          <mxGeometry x="120" y="1210" width="140" height="30" as="geometry" />
        </mxCell>
        <mxCell id="iUJNnhAUQARR3c_dlysx-50" value="&lt;span style=&quot;text-align: center;&quot;&gt;Выбрать сумму&lt;/span&gt;" style="text;whiteSpace=wrap;html=1;" parent="1" vertex="1">
          <mxGeometry x="120" y="1270" width="120" height="30" as="geometry" />
        </mxCell>
        <mxCell id="iUJNnhAUQARR3c_dlysx-51" value="&lt;span style=&quot;text-align: center;&quot;&gt;Предоставить документы соответствующие выбранному виду займа&lt;/span&gt;" style="text;whiteSpace=wrap;html=1;" parent="1" vertex="1">
          <mxGeometry x="120" y="1330" width="410" height="30" as="geometry" />
        </mxCell>
        <mxCell id="iUJNnhAUQARR3c_dlysx-52" value="&lt;span style=&quot;text-align: center;&quot;&gt;Перевыпуск карты&lt;/span&gt;" style="text;whiteSpace=wrap;html=1;" parent="1" vertex="1">
          <mxGeometry x="127.5" y="1560" width="160" height="30" as="geometry" />
        </mxCell>
        <mxCell id="iUJNnhAUQARR3c_dlysx-54" value="&lt;span style=&quot;text-align: center;&quot;&gt;Оставить заявку на оформение карты&lt;/span&gt;" style="text;whiteSpace=wrap;html=1;" parent="1" vertex="1">
          <mxGeometry x="127.5" y="1610" width="240" height="30" as="geometry" />
        </mxCell>
        <mxCell id="xo-i3hGm0-CM7e10l9_S-1" style="edgeStyle=orthogonalEdgeStyle;rounded=0;orthogonalLoop=1;jettySize=auto;html=1;exitX=1;exitY=0.5;exitDx=0;exitDy=0;entryX=0;entryY=0.5;entryDx=0;entryDy=0;" parent="1" source="iUJNnhAUQARR3c_dlysx-58" target="24wafLq23CwLlZclelUw-3" edge="1">
          <mxGeometry relative="1" as="geometry">
            <mxPoint x="1520" y="859.9999999999998" as="targetPoint" />
          </mxGeometry>
        </mxCell>
        <mxCell id="iUJNnhAUQARR3c_dlysx-58" value="" style="rounded=0;whiteSpace=wrap;html=1;" parent="1" vertex="1">
          <mxGeometry x="855" y="710" width="20" height="280" as="geometry" />
        </mxCell>
        <mxCell id="Klhj3KLmwvLGpgCHU9fv-1" style="edgeStyle=orthogonalEdgeStyle;rounded=0;orthogonalLoop=1;jettySize=auto;html=1;exitX=1;exitY=0.5;exitDx=0;exitDy=0;" parent="1" source="iUJNnhAUQARR3c_dlysx-59" edge="1">
          <mxGeometry relative="1" as="geometry">
            <mxPoint x="1440" y="1260.1176470588236" as="targetPoint" />
          </mxGeometry>
        </mxCell>
        <mxCell id="iUJNnhAUQARR3c_dlysx-59" value="" style="rounded=0;whiteSpace=wrap;html=1;" parent="1" vertex="1">
          <mxGeometry x="1065" y="1070" width="20" height="380" as="geometry" />
        </mxCell>
        <mxCell id="CwmvsuY2jCGyQck4pKds-3" style="edgeStyle=orthogonalEdgeStyle;rounded=0;orthogonalLoop=1;jettySize=auto;html=1;exitX=1;exitY=0.5;exitDx=0;exitDy=0;entryX=0;entryY=0.5;entryDx=0;entryDy=0;" parent="1" source="iUJNnhAUQARR3c_dlysx-61" target="CwmvsuY2jCGyQck4pKds-1" edge="1">
          <mxGeometry relative="1" as="geometry" />
        </mxCell>
        <mxCell id="iUJNnhAUQARR3c_dlysx-61" value="" style="rounded=0;whiteSpace=wrap;html=1;" parent="1" vertex="1">
          <mxGeometry x="1220" y="1540" width="20" height="140" as="geometry" />
        </mxCell>
        <mxCell id="iUJNnhAUQARR3c_dlysx-63" style="edgeStyle=orthogonalEdgeStyle;rounded=0;orthogonalLoop=1;jettySize=auto;html=1;exitX=1;exitY=0.75;exitDx=0;exitDy=0;" parent="1" edge="1">
          <mxGeometry relative="1" as="geometry">
            <Array as="points">
              <mxPoint x="620" y="800" />
            </Array>
            <mxPoint x="109.99999999999989" y="799.9999999999998" as="sourcePoint" />
            <mxPoint x="850" y="800" as="targetPoint" />
          </mxGeometry>
        </mxCell>
        <mxCell id="iUJNnhAUQARR3c_dlysx-64" style="edgeStyle=orthogonalEdgeStyle;rounded=0;orthogonalLoop=1;jettySize=auto;html=1;exitX=1;exitY=0.75;exitDx=0;exitDy=0;" parent="1" edge="1">
          <mxGeometry relative="1" as="geometry">
            <Array as="points">
              <mxPoint x="622.5" y="840" />
            </Array>
            <mxPoint x="112.5" y="839.9999999999998" as="sourcePoint" />
            <mxPoint x="852.5" y="839.9999999999998" as="targetPoint" />
          </mxGeometry>
        </mxCell>
        <mxCell id="iUJNnhAUQARR3c_dlysx-65" style="edgeStyle=orthogonalEdgeStyle;rounded=0;orthogonalLoop=1;jettySize=auto;html=1;exitX=1;exitY=0.75;exitDx=0;exitDy=0;" parent="1" edge="1">
          <mxGeometry relative="1" as="geometry">
            <Array as="points">
              <mxPoint x="620" y="880" />
            </Array>
            <mxPoint x="110" y="880" as="sourcePoint" />
            <mxPoint x="850" y="880" as="targetPoint" />
          </mxGeometry>
        </mxCell>
        <mxCell id="iUJNnhAUQARR3c_dlysx-66" style="edgeStyle=orthogonalEdgeStyle;rounded=0;orthogonalLoop=1;jettySize=auto;html=1;exitX=1;exitY=0.75;exitDx=0;exitDy=0;" parent="1" edge="1">
          <mxGeometry relative="1" as="geometry">
            <Array as="points">
              <mxPoint x="620" y="920" />
            </Array>
            <mxPoint x="110" y="920" as="sourcePoint" />
            <mxPoint x="850" y="920" as="targetPoint" />
          </mxGeometry>
        </mxCell>
        <mxCell id="iUJNnhAUQARR3c_dlysx-67" style="edgeStyle=orthogonalEdgeStyle;rounded=0;orthogonalLoop=1;jettySize=auto;html=1;exitX=1;exitY=0.75;exitDx=0;exitDy=0;" parent="1" edge="1">
          <mxGeometry relative="1" as="geometry">
            <Array as="points">
              <mxPoint x="620" y="1118.46" />
            </Array>
            <mxPoint x="110" y="1118.46" as="sourcePoint" />
            <mxPoint x="1050" y="1118" as="targetPoint" />
          </mxGeometry>
        </mxCell>
        <mxCell id="iUJNnhAUQARR3c_dlysx-68" style="edgeStyle=orthogonalEdgeStyle;rounded=0;orthogonalLoop=1;jettySize=auto;html=1;exitX=1;exitY=0.75;exitDx=0;exitDy=0;" parent="1" edge="1">
          <mxGeometry relative="1" as="geometry">
            <Array as="points">
              <mxPoint x="620" y="1180.46" />
            </Array>
            <mxPoint x="110" y="1180.46" as="sourcePoint" />
            <mxPoint x="1050" y="1180" as="targetPoint" />
          </mxGeometry>
        </mxCell>
        <mxCell id="iUJNnhAUQARR3c_dlysx-69" style="edgeStyle=orthogonalEdgeStyle;rounded=0;orthogonalLoop=1;jettySize=auto;html=1;exitX=1;exitY=0.75;exitDx=0;exitDy=0;" parent="1" edge="1">
          <mxGeometry relative="1" as="geometry">
            <Array as="points">
              <mxPoint x="620" y="1240.46" />
            </Array>
            <mxPoint x="110" y="1240.46" as="sourcePoint" />
            <mxPoint x="1050" y="1240" as="targetPoint" />
          </mxGeometry>
        </mxCell>
        <mxCell id="iUJNnhAUQARR3c_dlysx-70" style="edgeStyle=orthogonalEdgeStyle;rounded=0;orthogonalLoop=1;jettySize=auto;html=1;exitX=1;exitY=0.75;exitDx=0;exitDy=0;" parent="1" edge="1">
          <mxGeometry relative="1" as="geometry">
            <Array as="points">
              <mxPoint x="620" y="1300.46" />
            </Array>
            <mxPoint x="110" y="1300.46" as="sourcePoint" />
            <mxPoint x="1050" y="1300" as="targetPoint" />
          </mxGeometry>
        </mxCell>
        <mxCell id="iUJNnhAUQARR3c_dlysx-71" style="edgeStyle=orthogonalEdgeStyle;rounded=0;orthogonalLoop=1;jettySize=auto;html=1;exitX=1;exitY=0.75;exitDx=0;exitDy=0;" parent="1" edge="1">
          <mxGeometry relative="1" as="geometry">
            <Array as="points">
              <mxPoint x="620" y="1360.46" />
            </Array>
            <mxPoint x="110" y="1360.46" as="sourcePoint" />
            <mxPoint x="1050" y="1360" as="targetPoint" />
          </mxGeometry>
        </mxCell>
        <mxCell id="iUJNnhAUQARR3c_dlysx-73" style="edgeStyle=orthogonalEdgeStyle;rounded=0;orthogonalLoop=1;jettySize=auto;html=1;exitX=1;exitY=0.75;exitDx=0;exitDy=0;" parent="1" edge="1">
          <mxGeometry relative="1" as="geometry">
            <Array as="points">
              <mxPoint x="620" y="1590.46" />
            </Array>
            <mxPoint x="110" y="1590.46" as="sourcePoint" />
            <mxPoint x="1210" y="1590" as="targetPoint" />
          </mxGeometry>
        </mxCell>
        <mxCell id="iUJNnhAUQARR3c_dlysx-74" style="edgeStyle=orthogonalEdgeStyle;rounded=0;orthogonalLoop=1;jettySize=auto;html=1;exitX=1;exitY=0.75;exitDx=0;exitDy=0;" parent="1" edge="1">
          <mxGeometry relative="1" as="geometry">
            <Array as="points">
              <mxPoint x="620" y="1640.46" />
            </Array>
            <mxPoint x="110" y="1640.46" as="sourcePoint" />
            <mxPoint x="1210" y="1640" as="targetPoint" />
          </mxGeometry>
        </mxCell>
        <mxCell id="iUJNnhAUQARR3c_dlysx-77" style="edgeStyle=orthogonalEdgeStyle;rounded=0;orthogonalLoop=1;jettySize=auto;html=1;exitX=0.8;exitY=0;exitDx=0;exitDy=0;exitPerimeter=0;" parent="1" source="iUJNnhAUQARR3c_dlysx-87" target="iUJNnhAUQARR3c_dlysx-87" edge="1">
          <mxGeometry relative="1" as="geometry">
            <Array as="points">
              <mxPoint x="262.5" y="2480" />
              <mxPoint x="192.5" y="2480" />
              <mxPoint x="192.5" y="2580" />
              <mxPoint x="239.5" y="2580" />
            </Array>
          </mxGeometry>
        </mxCell>
        <mxCell id="iUJNnhAUQARR3c_dlysx-78" style="rounded=0;orthogonalLoop=1;jettySize=auto;html=1;exitX=0.5;exitY=0.5;exitDx=0;exitDy=0;exitPerimeter=0;entryX=1.043;entryY=0.565;entryDx=0;entryDy=0;entryPerimeter=0;endArrow=none;endFill=0;" parent="1" source="iUJNnhAUQARR3c_dlysx-84" target="iUJNnhAUQARR3c_dlysx-91" edge="1">
          <mxGeometry relative="1" as="geometry" />
        </mxCell>
        <mxCell id="iUJNnhAUQARR3c_dlysx-79" style="edgeStyle=none;rounded=0;orthogonalLoop=1;jettySize=auto;html=1;exitX=0.5;exitY=0.5;exitDx=0;exitDy=0;exitPerimeter=0;entryX=0.5;entryY=1;entryDx=0;entryDy=0;endArrow=none;endFill=0;" parent="1" source="iUJNnhAUQARR3c_dlysx-84" target="iUJNnhAUQARR3c_dlysx-94" edge="1">
          <mxGeometry relative="1" as="geometry" />
        </mxCell>
        <mxCell id="iUJNnhAUQARR3c_dlysx-80" style="edgeStyle=none;rounded=0;orthogonalLoop=1;jettySize=auto;html=1;exitX=0.5;exitY=0.5;exitDx=0;exitDy=0;exitPerimeter=0;entryX=0.274;entryY=0.978;entryDx=0;entryDy=0;entryPerimeter=0;endArrow=none;endFill=0;" parent="1" source="iUJNnhAUQARR3c_dlysx-84" target="iUJNnhAUQARR3c_dlysx-86" edge="1">
          <mxGeometry relative="1" as="geometry" />
        </mxCell>
        <mxCell id="iUJNnhAUQARR3c_dlysx-81" style="edgeStyle=none;rounded=0;orthogonalLoop=1;jettySize=auto;html=1;exitX=0.5;exitY=0.5;exitDx=0;exitDy=0;exitPerimeter=0;entryX=0.5;entryY=0;entryDx=0;entryDy=0;endArrow=none;endFill=0;" parent="1" source="iUJNnhAUQARR3c_dlysx-84" target="iUJNnhAUQARR3c_dlysx-90" edge="1">
          <mxGeometry relative="1" as="geometry" />
        </mxCell>
        <mxCell id="iUJNnhAUQARR3c_dlysx-82" style="edgeStyle=none;rounded=0;orthogonalLoop=1;jettySize=auto;html=1;exitX=0.5;exitY=0.5;exitDx=0;exitDy=0;exitPerimeter=0;entryX=0;entryY=0.5;entryDx=0;entryDy=0;endArrow=none;endFill=0;" parent="1" source="iUJNnhAUQARR3c_dlysx-84" target="iUJNnhAUQARR3c_dlysx-93" edge="1">
          <mxGeometry relative="1" as="geometry" />
        </mxCell>
        <mxCell id="iUJNnhAUQARR3c_dlysx-83" style="edgeStyle=none;rounded=0;orthogonalLoop=1;jettySize=auto;html=1;exitX=0.5;exitY=0.5;exitDx=0;exitDy=0;exitPerimeter=0;endArrow=none;endFill=0;" parent="1" source="iUJNnhAUQARR3c_dlysx-84" target="iUJNnhAUQARR3c_dlysx-87" edge="1">
          <mxGeometry relative="1" as="geometry" />
        </mxCell>
        <mxCell id="iUJNnhAUQARR3c_dlysx-84" value="Пользователь" style="shape=umlActor;verticalLabelPosition=bottom;verticalAlign=top;html=1;outlineConnect=0;" parent="1" vertex="1">
          <mxGeometry x="577.5" y="2380" width="30" height="60" as="geometry" />
        </mxCell>
        <mxCell id="iUJNnhAUQARR3c_dlysx-85" value="Менеджер" style="ellipse;shape=umlControl;whiteSpace=wrap;html=1;" parent="1" vertex="1">
          <mxGeometry x="982.5" y="2470" width="70" height="80" as="geometry" />
        </mxCell>
        <mxCell id="iUJNnhAUQARR3c_dlysx-86" value="Кредитование" style="ellipse;shape=umlEntity;whiteSpace=wrap;html=1;" parent="1" vertex="1">
          <mxGeometry x="670" y="2140" width="92.5" height="80" as="geometry" />
        </mxCell>
        <mxCell id="iUJNnhAUQARR3c_dlysx-87" value="Форма регистрации&lt;br&gt;нового пользователя" style="shape=umlBoundary;whiteSpace=wrap;html=1;" parent="1" vertex="1">
          <mxGeometry x="202.5" y="2500" width="75" height="60" as="geometry" />
        </mxCell>
        <mxCell id="iUJNnhAUQARR3c_dlysx-88" style="edgeStyle=none;rounded=0;orthogonalLoop=1;jettySize=auto;html=1;exitX=0;exitY=0.5;exitDx=0;exitDy=0;endArrow=none;endFill=0;" parent="1" source="iUJNnhAUQARR3c_dlysx-90" target="iUJNnhAUQARR3c_dlysx-87" edge="1">
          <mxGeometry relative="1" as="geometry" />
        </mxCell>
        <mxCell id="iUJNnhAUQARR3c_dlysx-89" style="edgeStyle=none;rounded=0;orthogonalLoop=1;jettySize=auto;html=1;exitX=0.851;exitY=0.107;exitDx=0;exitDy=0;entryX=0.314;entryY=0.865;entryDx=0;entryDy=0;entryPerimeter=0;endArrow=none;endFill=0;exitPerimeter=0;" parent="1" source="iUJNnhAUQARR3c_dlysx-87" target="iUJNnhAUQARR3c_dlysx-91" edge="1">
          <mxGeometry relative="1" as="geometry" />
        </mxCell>
        <mxCell id="iUJNnhAUQARR3c_dlysx-90" value="Сайт" style="rounded=0;whiteSpace=wrap;html=1;" parent="1" vertex="1">
          <mxGeometry x="532.5" y="2560" width="120" height="60" as="geometry" />
        </mxCell>
        <mxCell id="iUJNnhAUQARR3c_dlysx-91" value="Форма входа в аккаунт пользователя" style="shape=umlBoundary;whiteSpace=wrap;html=1;" parent="1" vertex="1">
          <mxGeometry x="272.5" y="2280" width="75" height="60" as="geometry" />
        </mxCell>
        <mxCell id="iUJNnhAUQARR3c_dlysx-92" style="edgeStyle=none;rounded=0;orthogonalLoop=1;jettySize=auto;html=1;exitX=1;exitY=0.5;exitDx=0;exitDy=0;endArrow=none;endFill=0;" parent="1" source="iUJNnhAUQARR3c_dlysx-93" target="iUJNnhAUQARR3c_dlysx-85" edge="1">
          <mxGeometry relative="1" as="geometry" />
        </mxCell>
        <mxCell id="iUJNnhAUQARR3c_dlysx-93" value="Карты" style="ellipse;shape=umlEntity;whiteSpace=wrap;html=1;" parent="1" vertex="1">
          <mxGeometry x="837.5" y="2385" width="70" height="70" as="geometry" />
        </mxCell>
        <mxCell id="iUJNnhAUQARR3c_dlysx-94" value="Счет" style="ellipse;shape=umlEntity;whiteSpace=wrap;html=1;" parent="1" vertex="1">
          <mxGeometry x="412.5" y="2020" width="70" height="70" as="geometry" />
        </mxCell>
        <mxCell id="iUJNnhAUQARR3c_dlysx-95" value="&lt;span style=&quot;text-align: center&quot;&gt;8)Ввести логин&lt;/span&gt;&lt;span style=&quot;text-align: center&quot;&gt;()&lt;/span&gt;" style="text;whiteSpace=wrap;html=1;" parent="1" vertex="1">
          <mxGeometry x="342.5" y="2340" width="110" height="20" as="geometry" />
        </mxCell>
        <mxCell id="iUJNnhAUQARR3c_dlysx-96" value="&lt;span style=&quot;color: rgb(0 , 0 , 0) ; font-family: &amp;quot;helvetica&amp;quot; ; font-size: 12px ; font-style: normal ; font-weight: 400 ; letter-spacing: normal ; text-align: center ; text-indent: 0px ; text-transform: none ; word-spacing: 0px ; background-color: rgb(248 , 249 , 250) ; display: inline ; float: none&quot;&gt;9)Ввести пароль&lt;/span&gt;&lt;span style=&quot;text-align: center&quot;&gt;()&lt;/span&gt;" style="text;whiteSpace=wrap;html=1;" parent="1" vertex="1">
          <mxGeometry x="342.5" y="2355" width="110" height="30" as="geometry" />
        </mxCell>
        <mxCell id="iUJNnhAUQARR3c_dlysx-97" value="&lt;span style=&quot;color: rgb(0 , 0 , 0) ; font-family: &amp;quot;helvetica&amp;quot; ; font-size: 12px ; font-style: normal ; font-weight: 400 ; letter-spacing: normal ; text-align: center ; text-indent: 0px ; text-transform: none ; word-spacing: 0px ; background-color: rgb(248 , 249 , 250) ; display: inline ; float: none&quot;&gt;11)Восстановить аккаунт&lt;/span&gt;&lt;span style=&quot;text-align: center&quot;&gt;()&lt;/span&gt;" style="text;whiteSpace=wrap;html=1;" parent="1" vertex="1">
          <mxGeometry x="342.5" y="2368.79" width="150" height="30" as="geometry" />
        </mxCell>
        <mxCell id="iUJNnhAUQARR3c_dlysx-98" value="&lt;span style=&quot;color: rgb(0 , 0 , 0) ; font-family: &amp;quot;helvetica&amp;quot; ; font-size: 12px ; font-style: normal ; font-weight: 400 ; letter-spacing: normal ; text-align: center ; text-indent: 0px ; text-transform: none ; word-spacing: 0px ; background-color: rgb(248 , 249 , 250) ; display: inline ; float: none&quot;&gt;12)Войти в аккаунт&lt;/span&gt;&lt;span style=&quot;text-align: center&quot;&gt;()&lt;/span&gt;" style="text;whiteSpace=wrap;html=1;" parent="1" vertex="1">
          <mxGeometry x="342.5" y="2398.79" width="130" height="30" as="geometry" />
        </mxCell>
        <mxCell id="iUJNnhAUQARR3c_dlysx-99" value="&lt;span style=&quot;text-align: center;&quot;&gt;&lt;font style=&quot;font-size: 12px;&quot;&gt;3) Добавить документы идентификации личности&lt;/font&gt;&lt;/span&gt;" style="text;whiteSpace=wrap;html=1;align=left;" parent="1" vertex="1">
          <mxGeometry x="382.5" y="2480" width="240" height="30" as="geometry" />
        </mxCell>
        <mxCell id="iUJNnhAUQARR3c_dlysx-100" value="&lt;span style=&quot;text-align: center;&quot;&gt;4) Ввести личную информацию&lt;/span&gt;" style="text;whiteSpace=wrap;html=1;align=left;" parent="1" vertex="1">
          <mxGeometry x="382.5" y="2515" width="200" height="30" as="geometry" />
        </mxCell>
        <mxCell id="iUJNnhAUQARR3c_dlysx-102" value="6)Проверка &lt;br&gt;пользователя()" style="text;html=1;align=center;verticalAlign=middle;resizable=0;points=[];autosize=1;strokeColor=none;fillColor=none;" parent="1" vertex="1">
          <mxGeometry x="92.5" y="2505" width="110" height="40" as="geometry" />
        </mxCell>
        <mxCell id="iUJNnhAUQARR3c_dlysx-103" value="10) Проверка&lt;br&gt;логина и пароля()" style="text;html=1;align=center;verticalAlign=middle;resizable=0;points=[];autosize=1;strokeColor=none;fillColor=none;" parent="1" vertex="1">
          <mxGeometry x="147.5" y="2290" width="120" height="40" as="geometry" />
        </mxCell>
        <mxCell id="iUJNnhAUQARR3c_dlysx-104" value="&lt;div style=&quot;text-align: center;&quot;&gt;&lt;font face=&quot;helvetica&quot;&gt;&lt;span style=&quot;background-color: rgb(248, 249, 250);&quot;&gt;13)&amp;nbsp;&lt;/span&gt;&lt;/font&gt;Узнать информацию счета&lt;/div&gt;" style="text;whiteSpace=wrap;html=1;" parent="1" vertex="1">
          <mxGeometry x="323" y="2120" width="267" height="30" as="geometry" />
        </mxCell>
        <mxCell id="iUJNnhAUQARR3c_dlysx-105" value="&lt;span style=&quot;text-align: center;&quot;&gt;14) Узнать историю операций&lt;/span&gt;" style="text;whiteSpace=wrap;html=1;" parent="1" vertex="1">
          <mxGeometry x="323" y="2140" width="207" height="30" as="geometry" />
        </mxCell>
        <mxCell id="iUJNnhAUQARR3c_dlysx-106" value="&lt;div style=&quot;text-align: center;&quot;&gt;&lt;font face=&quot;helvetica&quot;&gt;&lt;span style=&quot;background-color: rgb(248, 249, 250);&quot;&gt;15)&amp;nbsp;&lt;/span&gt;&lt;/font&gt;Узнать баланс карт&lt;/div&gt;" style="text;whiteSpace=wrap;html=1;" parent="1" vertex="1">
          <mxGeometry x="323" y="2160" width="199.5" height="30" as="geometry" />
        </mxCell>
        <mxCell id="iUJNnhAUQARR3c_dlysx-107" value="&lt;div style=&quot;text-align: center;&quot;&gt;&lt;font face=&quot;helvetica&quot;&gt;&lt;span style=&quot;background-color: rgb(248, 249, 250);&quot;&gt;16)&amp;nbsp;&lt;/span&gt;&lt;/font&gt;Узнать реквизиты&lt;/div&gt;" style="text;whiteSpace=wrap;html=1;" parent="1" vertex="1">
          <mxGeometry x="323" y="2180" width="229.5" height="30" as="geometry" />
        </mxCell>
        <mxCell id="iUJNnhAUQARR3c_dlysx-108" value="&lt;div style=&quot;text-align: center;&quot;&gt;&lt;font face=&quot;helvetica&quot;&gt;&lt;span style=&quot;background-color: rgb(248, 249, 250);&quot;&gt;22)&amp;nbsp;&lt;/span&gt;&lt;/font&gt;Предоставить документы соответствующие выбранному виду займа&lt;/div&gt;" style="text;whiteSpace=wrap;html=1;" parent="1" vertex="1">
          <mxGeometry x="701.5" y="2310" width="417.5" height="30" as="geometry" />
        </mxCell>
        <mxCell id="iUJNnhAUQARR3c_dlysx-109" value="&lt;div style=&quot;text-align: center;&quot;&gt;&lt;font face=&quot;helvetica&quot;&gt;&lt;span style=&quot;background-color: rgb(248, 249, 250);&quot;&gt;18)&amp;nbsp;&lt;/span&gt;&lt;/font&gt;Отправить запрос на подтверждение&amp;nbsp;&lt;br&gt;&lt;/div&gt;" style="text;whiteSpace=wrap;html=1;" parent="1" vertex="1">
          <mxGeometry x="702.5" y="2235" width="287.5" height="30" as="geometry" />
        </mxCell>
        <mxCell id="iUJNnhAUQARR3c_dlysx-110" value="&lt;div style=&quot;text-align: center;&quot;&gt;&lt;font face=&quot;helvetica&quot;&gt;&lt;span style=&quot;background-color: rgb(248, 249, 250);&quot;&gt;19)&amp;nbsp;&lt;/span&gt;&lt;/font&gt;Выбрать тип лица, которому будут оказана услуга&lt;/div&gt;" style="text;whiteSpace=wrap;html=1;" parent="1" vertex="1">
          <mxGeometry x="702.5" y="2255" width="357.5" height="30" as="geometry" />
        </mxCell>
        <mxCell id="iUJNnhAUQARR3c_dlysx-111" value="&lt;span style=&quot;color: rgb(0 , 0 , 0) ; font-family: &amp;quot;helvetica&amp;quot; ; font-size: 12px ; font-style: normal ; font-weight: 400 ; letter-spacing: normal ; text-align: center ; text-indent: 0px ; text-transform: none ; word-spacing: 0px ; background-color: rgb(248 , 249 , 250) ; display: inline ; float: none&quot;&gt;20)&amp;nbsp;&lt;/span&gt;&lt;span style=&quot;text-align: center;&quot;&gt;Выбрать вид займа&lt;/span&gt;" style="text;whiteSpace=wrap;html=1;" parent="1" vertex="1">
          <mxGeometry x="702.5" y="2275" width="247.5" height="30" as="geometry" />
        </mxCell>
        <mxCell id="iUJNnhAUQARR3c_dlysx-112" value="21) Выбрать сумму&amp;nbsp;" style="text;whiteSpace=wrap;html=1;" parent="1" vertex="1">
          <mxGeometry x="702.5" y="2295" width="160" height="30" as="geometry" />
        </mxCell>
        <mxCell id="iUJNnhAUQARR3c_dlysx-113" value="&lt;div style=&quot;text-align: center;&quot;&gt;&lt;font face=&quot;helvetica&quot;&gt;&lt;span style=&quot;background-color: rgb(248, 249, 250);&quot;&gt;24)&amp;nbsp;&lt;/span&gt;&lt;/font&gt;Перевыпуск карты&lt;/div&gt;" style="text;whiteSpace=wrap;html=1;" parent="1" vertex="1">
          <mxGeometry x="652.5" y="2420" width="170" height="30" as="geometry" />
        </mxCell>
        <mxCell id="iUJNnhAUQARR3c_dlysx-114" value="&lt;div style=&quot;text-align: center;&quot;&gt;&lt;font face=&quot;helvetica&quot;&gt;&lt;span style=&quot;background-color: rgb(248, 249, 250);&quot;&gt;25)&amp;nbsp;&lt;/span&gt;&lt;/font&gt;Оставить заявку на оформение карты&lt;/div&gt;" style="text;whiteSpace=wrap;html=1;" parent="1" vertex="1">
          <mxGeometry x="652.5" y="2450" width="437.5" height="30" as="geometry" />
        </mxCell>
        <mxCell id="iUJNnhAUQARR3c_dlysx-115" value="&lt;span style=&quot;text-align: center;&quot;&gt;26) Выдать карту&lt;/span&gt;" style="text;whiteSpace=wrap;html=1;" parent="1" vertex="1">
          <mxGeometry x="982.5" y="2420" width="200" height="30" as="geometry" />
        </mxCell>
        <mxCell id="iUJNnhAUQARR3c_dlysx-116" style="edgeStyle=orthogonalEdgeStyle;rounded=0;orthogonalLoop=1;jettySize=auto;html=1;exitX=0.8;exitY=0;exitDx=0;exitDy=0;exitPerimeter=0;" parent="1" edge="1">
          <mxGeometry relative="1" as="geometry">
            <mxPoint x="332.5" y="2280" as="sourcePoint" />
            <mxPoint x="309.5526315789473" y="2340" as="targetPoint" />
            <Array as="points">
              <mxPoint x="332.5" y="2260" />
              <mxPoint x="262.5" y="2260" />
              <mxPoint x="262.5" y="2360" />
              <mxPoint x="309.5" y="2360" />
            </Array>
          </mxGeometry>
        </mxCell>
        <mxCell id="iUJNnhAUQARR3c_dlysx-117" value="1) Переход на сайт()" style="text;html=1;align=center;verticalAlign=middle;resizable=0;points=[];autosize=1;strokeColor=none;fillColor=none;" parent="1" vertex="1">
          <mxGeometry x="600" y="2520" width="140" height="30" as="geometry" />
        </mxCell>
        <mxCell id="iUJNnhAUQARR3c_dlysx-118" value="2) Открыть форму &lt;br&gt;регистрации нового пользователя()" style="text;html=1;align=center;verticalAlign=middle;resizable=0;points=[];autosize=1;strokeColor=none;fillColor=none;" parent="1" vertex="1">
          <mxGeometry x="292.5" y="2585" width="230" height="40" as="geometry" />
        </mxCell>
        <mxCell id="iUJNnhAUQARR3c_dlysx-119" value="7) открыть форму входа&lt;br&gt;в аккаунт()" style="text;html=1;align=center;verticalAlign=middle;resizable=0;points=[];autosize=1;strokeColor=none;fillColor=none;" parent="1" vertex="1">
          <mxGeometry x="107.5" y="2385" width="160" height="40" as="geometry" />
        </mxCell>
        <mxCell id="fybVgdrEERvW4Q_8sqrN-3" value="&lt;span style=&quot;text-align: center;&quot;&gt;Ввести контактную информацию&lt;/span&gt;" style="text;whiteSpace=wrap;html=1;" parent="1" vertex="1">
          <mxGeometry x="112.5" y="380" width="200" height="30" as="geometry" />
        </mxCell>
        <mxCell id="24wafLq23CwLlZclelUw-1" value="Служба поддержки" style="ellipse;shape=umlControl;whiteSpace=wrap;html=1;" parent="1" vertex="1">
          <mxGeometry x="1530" y="37.5" width="110" height="110" as="geometry" />
        </mxCell>
        <mxCell id="24wafLq23CwLlZclelUw-2" value="" style="endArrow=none;dashed=1;html=1;rounded=0;" parent="1" source="24wafLq23CwLlZclelUw-3" edge="1">
          <mxGeometry width="50" height="50" relative="1" as="geometry">
            <mxPoint x="1560" y="1905" as="sourcePoint" />
            <mxPoint x="1580" y="150" as="targetPoint" />
          </mxGeometry>
        </mxCell>
        <mxCell id="24wafLq23CwLlZclelUw-4" value="" style="endArrow=none;dashed=1;html=1;rounded=0;entryX=0.5;entryY=0.5;entryDx=0;entryDy=0;entryPerimeter=0;" parent="1" target="24wafLq23CwLlZclelUw-3" edge="1">
          <mxGeometry width="50" height="50" relative="1" as="geometry">
            <mxPoint x="1589.627659574468" y="1720" as="sourcePoint" />
            <mxPoint x="1566.25" y="145" as="targetPoint" />
          </mxGeometry>
        </mxCell>
        <mxCell id="24wafLq23CwLlZclelUw-3" value="" style="rounded=0;whiteSpace=wrap;html=1;" parent="1" vertex="1">
          <mxGeometry x="1575" y="780" width="20" height="140" as="geometry" />
        </mxCell>
        <mxCell id="24wafLq23CwLlZclelUw-5" value="" style="endArrow=none;dashed=1;html=1;rounded=0;entryX=0.5;entryY=0.5;entryDx=0;entryDy=0;entryPerimeter=0;" parent="1" source="CwmvsuY2jCGyQck4pKds-1" target="iUJNnhAUQARR3c_dlysx-75" edge="1">
          <mxGeometry width="50" height="50" relative="1" as="geometry">
            <mxPoint x="1440" y="1900" as="sourcePoint" />
            <mxPoint x="1446.25" y="148.75" as="targetPoint" />
          </mxGeometry>
        </mxCell>
        <mxCell id="iUJNnhAUQARR3c_dlysx-75" value="" style="rounded=0;whiteSpace=wrap;html=1;" parent="1" vertex="1">
          <mxGeometry x="1435" y="1200" width="20" height="140" as="geometry" />
        </mxCell>
        <mxCell id="tAI0fudEgkBMrrfn3P8_-1" value="&lt;span style=&quot;caret-color: rgb(0, 0, 0); color: rgb(0, 0, 0); font-family: Helvetica; font-size: 12px; font-style: normal; font-variant-caps: normal; font-weight: 400; letter-spacing: normal; orphans: auto; text-align: center; text-indent: 0px; text-transform: none; white-space: normal; widows: auto; word-spacing: 0px; -webkit-text-stroke-width: 0px; background-color: rgb(251, 251, 251); text-decoration: none; display: inline !important; float: none;&quot;&gt;Помощь с оформлением заявки на кредитование&lt;/span&gt;" style="text;whiteSpace=wrap;html=1;" parent="1" vertex="1">
          <mxGeometry x="1100" y="1230" width="310" height="40" as="geometry" />
        </mxCell>
        <mxCell id="JvfY33SriVuTMcsWNX_1-1" value="&lt;span style=&quot;caret-color: rgb(0, 0, 0); color: rgb(0, 0, 0); font-family: Helvetica; font-size: 12px; font-style: normal; font-variant-caps: normal; font-weight: 400; letter-spacing: normal; orphans: auto; text-align: center; text-indent: 0px; text-transform: none; white-space: normal; widows: auto; word-spacing: 0px; -webkit-text-stroke-width: 0px; background-color: rgb(251, 251, 251); text-decoration: none; display: inline !important; float: none;&quot;&gt;Проверить состояние счета клиента&lt;/span&gt;" style="text;whiteSpace=wrap;html=1;" parent="1" vertex="1">
          <mxGeometry x="1135" y="820" width="240" height="40" as="geometry" />
        </mxCell>
        <mxCell id="CwmvsuY2jCGyQck4pKds-2" value="" style="endArrow=none;dashed=1;html=1;rounded=0;entryX=0.5;entryY=0.5;entryDx=0;entryDy=0;entryPerimeter=0;" parent="1" target="CwmvsuY2jCGyQck4pKds-1" edge="1">
          <mxGeometry width="50" height="50" relative="1" as="geometry">
            <mxPoint x="1440" y="1900" as="sourcePoint" />
            <mxPoint x="1445" y="1270" as="targetPoint" />
          </mxGeometry>
        </mxCell>
        <mxCell id="CwmvsuY2jCGyQck4pKds-1" value="" style="rounded=0;whiteSpace=wrap;html=1;" parent="1" vertex="1">
          <mxGeometry x="1430" y="1540" width="20" height="140" as="geometry" />
        </mxCell>
        <mxCell id="CwmvsuY2jCGyQck4pKds-4" value="Выдать карту" style="whiteSpace=wrap;html=1;fillColor=none;strokeColor=none;" parent="1" vertex="1">
          <mxGeometry x="1270" y="1560" width="120" height="60" as="geometry" />
        </mxCell>
        <mxCell id="mPgYB99J7IPhoictR7qZ-2" value="" style="endArrow=none;dashed=1;html=1;rounded=0;" parent="1" edge="1">
          <mxGeometry width="50" height="50" relative="1" as="geometry">
            <mxPoint x="1590" y="1880" as="sourcePoint" />
            <mxPoint x="1590" y="1720" as="targetPoint" />
          </mxGeometry>
        </mxCell>
        <mxCell id="mPgYB99J7IPhoictR7qZ-4" value="&lt;span style=&quot;text-align: center;&quot;&gt;5) Ввести контактную информацию&lt;/span&gt;" style="text;whiteSpace=wrap;html=1;align=left;" parent="1" vertex="1">
          <mxGeometry x="382.5" y="2540" width="257.5" height="30" as="geometry" />
        </mxCell>
        <mxCell id="mPgYB99J7IPhoictR7qZ-6" style="edgeStyle=none;rounded=0;orthogonalLoop=1;jettySize=auto;html=1;exitX=0;exitY=0.5;exitDx=0;exitDy=0;endArrow=none;endFill=0;" parent="1" source="iUJNnhAUQARR3c_dlysx-94" target="mPgYB99J7IPhoictR7qZ-9" edge="1">
          <mxGeometry relative="1" as="geometry">
            <mxPoint x="917" y="2430" as="sourcePoint" />
            <mxPoint x="930.5102532021688" y="2096.2244692487657" as="targetPoint" />
            <Array as="points" />
          </mxGeometry>
        </mxCell>
        <mxCell id="mPgYB99J7IPhoictR7qZ-8" value="&lt;span style=&quot;caret-color: rgb(0, 0, 0); color: rgb(0, 0, 0); font-family: Helvetica; font-size: 12px; font-style: normal; font-variant-caps: normal; font-weight: 400; letter-spacing: normal; orphans: auto; text-align: center; text-indent: 0px; text-transform: none; white-space: normal; widows: auto; word-spacing: 0px; -webkit-text-stroke-width: 0px; background-color: rgb(251, 251, 251); text-decoration: none; display: inline !important; float: none;&quot;&gt;17) Проверить состояние счета клиента&lt;/span&gt;" style="text;whiteSpace=wrap;html=1;rotation=0;" parent="1" vertex="1">
          <mxGeometry x="225" y="1980" width="237.5" height="40" as="geometry" />
        </mxCell>
        <mxCell id="mPgYB99J7IPhoictR7qZ-9" value="Служба поддержки" style="ellipse;shape=umlControl;whiteSpace=wrap;html=1;" parent="1" vertex="1">
          <mxGeometry x="90" y="1945" width="110" height="110" as="geometry" />
        </mxCell>
        <mxCell id="mPgYB99J7IPhoictR7qZ-10" value="Менеджер" style="ellipse;shape=umlControl;whiteSpace=wrap;html=1;" parent="1" vertex="1">
          <mxGeometry x="1040" y="2060" width="70" height="80" as="geometry" />
        </mxCell>
        <mxCell id="mPgYB99J7IPhoictR7qZ-12" style="edgeStyle=none;rounded=0;orthogonalLoop=1;jettySize=auto;html=1;exitX=1;exitY=0.5;exitDx=0;exitDy=0;endArrow=none;endFill=0;entryX=0.174;entryY=0.863;entryDx=0;entryDy=0;entryPerimeter=0;" parent="1" source="iUJNnhAUQARR3c_dlysx-86" target="mPgYB99J7IPhoictR7qZ-10" edge="1">
          <mxGeometry relative="1" as="geometry">
            <mxPoint x="918" y="2430" as="sourcePoint" />
            <mxPoint x="860" y="2132" as="targetPoint" />
          </mxGeometry>
        </mxCell>
        <mxCell id="mPgYB99J7IPhoictR7qZ-13" value="&lt;span style=&quot;caret-color: rgb(0, 0, 0); color: rgb(0, 0, 0); font-family: Helvetica; font-size: 12px; font-style: normal; font-variant-caps: normal; font-weight: 400; letter-spacing: normal; orphans: auto; text-align: center; text-indent: 0px; text-transform: none; white-space: normal; widows: auto; word-spacing: 0px; -webkit-text-stroke-width: 0px; background-color: rgb(251, 251, 251); text-decoration: none; display: inline !important; float: none;&quot;&gt;23) Помощь с оформлением заявки на кредитование&lt;/span&gt;" style="text;whiteSpace=wrap;html=1;rotation=0;" parent="1" vertex="1">
          <mxGeometry x="701.5" y="2080" width="310" height="40" as="geometry" />
        </mxCell>
        <mxCell id="icKoMh8kg62tUMvse8_J-1" value="" style="html=1;verticalAlign=bottom;endArrow=open;dashed=1;endSize=8;curved=0;rounded=0;entryX=1;entryY=0.25;entryDx=0;entryDy=0;exitX=0;exitY=0.5;exitDx=0;exitDy=0;" edge="1" parent="1">
          <mxGeometry relative="1" as="geometry">
            <mxPoint x="630" y="610.25" as="sourcePoint" />
            <mxPoint x="110" y="610.0000000000014" as="targetPoint" />
          </mxGeometry>
        </mxCell>
        <mxCell id="icKoMh8kg62tUMvse8_J-2" value="" style="html=1;verticalAlign=bottom;endArrow=open;dashed=1;endSize=8;curved=0;rounded=0;entryX=1.1;entryY=0.137;entryDx=0;entryDy=0;exitX=0;exitY=0.75;exitDx=0;exitDy=0;entryPerimeter=0;" edge="1" parent="1">
          <mxGeometry relative="1" as="geometry">
            <mxPoint x="450" y="437.7" as="sourcePoint" />
            <mxPoint x="112" y="437.003" as="targetPoint" />
          </mxGeometry>
        </mxCell>
      </root>
    </mxGraphModel>
  </diagram>
</mxfile>
